<svg width="640" height="360" viewBox="0 0 640 360" xmlns="http://www.w3.org/2000/svg">
  <rect width="640" height="360" rx="28" fill="#0f172a"/>
  <rect x="34" y="34" width="572" height="292" rx="20" fill="#111827" stroke="#ff2d2d" stroke-width="3"/>
  <circle cx="198" cy="182" r="84" fill="#ff2d2d"/>
  <circle cx="440" cy="182" r="62" fill="#f5f5f5"/>
  <path d="M154 182c0-56 44-100 100-100h38c18 0 34 10 42 26" stroke="#fff" stroke-width="16" stroke-linecap="round"/>
  <path d="M394 182c0 56-44 100-100 100h-38c-18 0-34-10-42-26" stroke="#ff2d2d" stroke-width="16" stroke-linecap="round"/>
  <rect x="96" y="72" width="148" height="32" rx="16" fill="#f8fafc"/>
  <rect x="392" y="72" width="152" height="32" rx="16" fill="#ff2d2d"/>
  <text x="126" y="94" font-family="Inter, Arial, sans-serif" font-size="18" font-weight="700" fill="#0f172a">3D Design</text>
  <text x="430" y="94" font-family="Inter, Arial, sans-serif" font-size="18" font-weight="700" fill="#ffffff">Animation</text>
</svg>